# xmcd CD database file
#
# Track frame offsets:
#       150
#       3018
#       21085
#       42100
#       58060
#       79404
#       100005
#       119708
#       133696
#       165177
#       181985
#
# Disc length: 2674 seconds
#
# Revision: 0
# Processed by: cddbd v1.5.2PL0 Copyright (c) Steve Scherf et al.
# Submitted via: jack 3.1.1
#
DISCID=820a700b
DTITLE=3582 - Situational Ethics
DYEAR=2003
DGENRE=Rap
TTITLE0=Intro
TTITLE1=The E
TTITLE2=Look At You
TTITLE3=Loser Type
TTITLE4=Take It To The Face
TTITLE5=I Would Change
TTITLE6=Bad As They Come
TTITLE7=Vanessa From Venezuela
TTITLE8=Outro
TTITLE9=The E (Remix)
TTITLE10=Bad As They Come (Remix)
EXTD=
EXTT0=
EXTT1=
EXTT2=
EXTT3=
EXTT4=
EXTT5=
EXTT6=
EXTT7=
EXTT8=
EXTT9=
EXTT10=
PLAYORDER=
